<?xml version="1.0" encoding="UTF-8" standalone="no"?>
<svg
   version="1.1"
   width="318.95529"
   height="425.77039"
   id="svg1"
   sodipodi:docname="pattern.svg"
   inkscape:export-filename="pattern.svg"
   inkscape:export-xdpi="30.098263"
   inkscape:export-ydpi="30.098263"
   inkscape:version="1.4.3 (0d15f75, 2025-12-25)"
   xmlns:inkscape="http://www.inkscape.org/namespaces/inkscape"
   xmlns:sodipodi="http://sodipodi.sourceforge.net/DTD/sodipodi-0.dtd"
   xmlns="http://www.w3.org/2000/svg"
   xmlns:svg="http://www.w3.org/2000/svg">
  <defs
     id="defs1" />
  <sodipodi:namedview
     id="namedview1"
     pagecolor="#ffffff"
     bordercolor="#000000"
     borderopacity="0.25"
     inkscape:showpageshadow="2"
     inkscape:pageopacity="0.0"
     inkscape:pagecheckerboard="0"
     inkscape:deskcolor="#d1d1d1"
     inkscape:zoom="1.8155326"
     inkscape:cx="159.45734"
     inkscape:cy="212.88519"
     inkscape:window-width="1920"
     inkscape:window-height="991"
     inkscape:window-x="-9"
     inkscape:window-y="-9"
     inkscape:window-maximized="1"
     inkscape:current-layer="svg1">
    <inkscape:page
       x="0"
       y="0"
       width="318.95529"
       height="425.77039"
       id="page2"
       margin="0"
       bleed="0" />
  </sodipodi:namedview>
  <path
     d="m 306.56027,3.9969481 c 10.53737,10.9522279 12.354,38.1114439 12.375,52.5624999 0.007,0.927158 0.0132,1.854316 0.02,2.80957 -0.33723,12.758683 -6.27482,24.517073 -15.02002,33.62793 -6.97704,6.561875 -13.30927,10.230062 -22.375,13.125002 -5.95506,1.92289 -10.0334,3.5132 -13.40235,9.09766 -0.30035,0.66902 -0.6007,1.33804 -0.91015,2.02734 -0.36481,0.78117 -0.72961,1.56234 -1.10547,2.36719 -1.01908,2.99936 -1.16766,5.53325 -1.26953,8.69531 -0.93335,13.17051 -5.78154,22.43332 -14.625,31.9375 -5.44109,4.6872 -13.58907,11 -21,11 -0.25782,0.55945 -0.51563,1.11891 -0.78125,1.69531 -1.21875,2.30469 -1.21875,2.30469 -2.875,4.60938 -4.62018,6.44083 -5.96198,11.39834 -6.78125,19.20703 -1.76188,10.92606 -9.02583,20.23253 -17.49609,27.04297 -3.84593,2.57461 -7.78646,4.0665 -12.12891,5.63281 -6.68933,2.75492 -9.9344,6.25953 -12.9375,12.8125 -1.15873,3.51418 -2.08057,7.09091 -3.02832,10.6665 -3.16704,11.36244 -10.00836,18.35226 -19.97168,24.3335 -0.80244,0.42732 -1.60488,0.85465 -2.43164,1.29492 -2.83826,1.88426 -4.18926,3.59233 -6.05664,6.42383 -0.6202,0.92716 -1.2404,1.85432 -1.8794,2.80957 -0.96268,1.47098 -0.96268,1.47098 -1.94482,2.97168 -1.33582,2.00616 -2.67304,4.01138 -4.01172,6.01562 -0.63599,0.95584 -1.27198,1.91168 -1.92724,2.89649 -2.03991,3.01913 -4.17689,5.93143 -6.37354,8.83789 -6.63337,8.8866 -6.63337,8.8866 -8.4375,19.5 1.37618,6.95399 4.86042,10.20957 10.5625,14.125 5.87137,4.09431 8.34592,7.70937 10.12891,14.53125 1.14929,8.03293 -2.34804,14.6361 -6.98755,20.90503 -2.07527,2.6883 -4.19465,5.33865 -6.33106,7.97851 -1.46117,1.83351 -1.46117,1.83351 -2.96264,4.53833 -2.26664,3.6529 -5.3454,4.88544 -9.34766,6.17188 -8.3643,1.62024 -14.05982,-1.61841 -21.000004,-6 -0.83016,-0.56332 -1.66031,-1.12664 -2.51562,-1.70703 -2.85054,-1.48353 -4.26613,-1.55683 -7.42188,-1.16797 -1.2201,0.12762 -1.2201,0.12762 -2.46484,0.25781 -7.15599,1.70022 -10.1228,5.06971 -13.91016,10.99219 -0.47075,0.70737 -0.9415,1.41475 -1.42651,2.14355 -1.4325,2.15274 -2.84837,4.31563 -4.26099,6.48145 -1.58958,2.42677 -3.19531,4.84157 -4.8125,7.25 -0.66645,1.01578 -1.33289,2.03156 -2.01953,3.07812 -3.58821,4.42224 -7.82678,7.28847 -13.55078,7.94532 -0.90492,0.0335 -1.80985,0.067 -2.74219,0.10156 -0.88945,0.049 -1.77891,0.098 -2.69531,0.14844 -8.05001,-1.32519 -15.02792,-7.32909 -21.49219,-12.02344 -0.78439,-0.55559 -1.56879,-1.11117 -2.37695,-1.68359 C 7.3103065,408.27338 2.6519665,404.45882 0.24776645,398.24695 -1.3842235,385.59371 5.3090765,378.04538 12.594936,368.47791 c 7.70747,-10.19008 7.70747,-10.19008 9.29736,-22.64502 -1.81297,-7.27385 -6.85272,-10.13287 -12.7343695,-14.20703 -3.94344,-3.22356 -6.30107,-6.55163 -7.91016,-11.37891 -0.64779005,-9.71689 3.26288,-15.84624 8.75,-23.5625 0.5001595,-0.72896 1.0003095,-1.45793 1.5156295,-2.20898 4.21714,-5.97608 9.06336,-12.41191 16.67187,-13.72852 7.78613,-1.1123 12.53783,1.08883 19.0625,5.0625 4.95844,2.98754 8.19074,4.63442 14,4.4375 8.21214,-2.5054 12.38959,-8.22094 16.9375,-15.0625 3.15731,-4.72215 6.35975,-9.37312 9.78516,-13.90625 6.61701,-8.8576 11.37173,-15.63915 12.804684,-26.76563 1.37896,-9.52734 7.27318,-16.26203 14.47266,-22.26562 1.3341,-0.82504 2.68761,-1.61989 4.0625,-2.375 5.66831,-3.24391 10.45455,-9.51714 12.66797,-15.64844 0.32559,-2.38769 0.25089,-4.63178 0.14453,-7.03906 -0.0755,-11.33876 4.14523,-22.74206 12.125,-30.9375 12.92411,-10 12.92411,-10 18,-10 0.40412,-0.87785 0.40412,-0.87785 0.81641,-1.77344 1.18359,-2.22656 1.18359,-2.22656 2.58593,-3.95312 4.12979,-5.10706 5.28046,-9.74144 6.16016,-16.08594 1.66781,-11.92431 5.37345,-21.10446 13.4375,-30.187502 0.49887,-0.614883 0.99773,-1.229766 1.51172,-1.863281 5.22591,-5.936736 12.32352,-9.079383 19.48828,-12.136719 0.66,0 1.32,0 2,0 0.41487,-0.878335 0.41487,-0.878335 0.83813,-1.774414 1.10351,-2.113805 2.3588,-3.905645 3.75171,-5.834961 3.04107,-4.822003 3.03087,-9.065674 2.97266,-14.640625 0.29355,-14.742858 4.40917,-26.641588 14.6875,-37.5 10.90463,-10.356659 23.75111,-14.5191396 38.35229,-16.6879882 2.06733,-0.3093375 4.1296,-0.6432304 6.19263,-0.9799804 25.0799,-3.9477678 25.0799,-3.9477678 31.51758,1.1679687 z m -16.1875,5.5 c -1.75572,2.6510879 -1.75572,2.6510879 -2.125,5.7499999 2.07808,3.46616 2.07808,3.46616 5,6 3.64982,0.419097 3.64982,0.419097 7,-1 2.243,-2.071636 2.243,-2.071636 3,-5 -0.55413,-3.247202 -0.55413,-3.247202 -2,-5.9999999 -3.48469,-1.7423407 -7.5854,-1.9430723 -10.875,0.25 z M 247.7712,25.321167 c -0.87634,1.28529 -1.71908,2.594257 -2.52343,3.925781 -0.77344,1.059609 -1.54688,2.119219 -2.34375,3.210937 -1.10419,1.620274 -2.2079,3.2409 -3.30176,4.868165 -1.71848,2.552217 -3.44903,5.039253 -5.37012,7.444335 -0.57234,0.734766 -1.14469,1.469532 -1.73437,2.226563 -0.51047,0.613594 -1.02094,1.227187 -1.54688,1.859375 -2.1196,7.206634 4.90779,17.447898 7.85938,23.828125 0.74153,1.630986 0.74153,1.630986 1.49804,3.294922 2.36152,5.540792 2.36152,5.540792 5.93946,10.267578 2.57901,0.44648 5.07632,0.777849 7.67578,1.027344 0.76217,0.07562 1.52434,0.151233 2.30961,0.229141 1.61433,0.1554 3.22917,0.305524 4.84444,0.45079 2.46566,0.228648 4.92531,0.495445 7.38696,0.763428 1.56944,0.146261 3.1391,0.290216 4.70899,0.431641 0.7335,0.08515 1.467,0.170307 2.22273,0.258041 4.00695,0.311739 5.55837,0.0759 8.73381,-2.483871 2.1329,-2.695756 4.07675,-5.406263 5.93018,-8.301514 3.38933,-5.21635 6.97531,-10.228055 10.71875,-15.195313 1.65502,-2.01806 1.65502,-2.01806 1.46875,-4.179687 0.66,-0.33 1.32,-0.66 2,-1 -1.95159,-4.238452 -3.90891,-8.474193 -5.87159,-12.70752 -0.66694,-1.440674 -1.33232,-2.882077 -1.99609,-4.324218 -0.95404,-2.072088 -1.91371,-4.14149 -2.87451,-6.21045 -0.29591,-0.64589 -0.59182,-1.291781 -0.8967,-1.957244 -1.24362,-2.665679 -2.26345,-4.7029 -4.36111,-6.800568 -3.9436,-0.962517 -7.98188,-1.437739 -12,-2 -1.06574,-0.150981 -2.13147,-0.301963 -3.2295,-0.45752 -3.21134,-0.422854 -6.42376,-0.771494 -9.6455,-1.10498 -1.08797,-0.14502 -2.17594,-0.290039 -3.29688,-0.439453 -6.93042,-0.770167 -6.93042,-0.770167 -12.30469,3.076172 z m -48.52343,78.925783 c -1.07581,1.45774 -2.15786,2.91089 -3.24609,4.35938 -1.06505,1.46263 -2.12885,2.92618 -3.19141,4.39062 -0.83048,1.11182 -0.83048,1.11182 -1.67773,2.24609 -0.51756,0.71801 -1.03512,1.43602 -1.56836,2.17579 -0.70468,0.96051 -0.70468,0.96051 -1.42359,1.94042 -1.06044,1.82291 -1.06044,1.82291 -0.70776,3.74708 1.06596,2.79997 2.27259,5.50232 3.5376,8.21875 0.53818,1.16015 1.07636,2.32031 1.63086,3.51562 0.56958,1.21879 1.13924,2.43753 1.70898,3.65625 0.57389,1.23423 1.14746,2.4686 1.7207,3.70312 1.40248,3.0171 2.80819,6.03264 4.2168,9.04688 3.45761,0.34113 6.91617,0.67143 10.375,1 0.9655,0.0954 1.93101,0.19078 2.92578,0.28906 2.89813,0.27231 5.79589,0.50166 8.69922,0.71094 0.92973,0.0786 1.85947,0.15727 2.81738,0.23828 5.12097,0.37531 5.12097,0.37531 9.34277,-2.12891 0.91073,-1.53914 0.91073,-1.53914 1.83985,-3.10937 1.17512,-1.52423 2.36268,-3.0389 3.55859,-4.54688 1.29544,-1.73253 2.58834,-3.46696 3.87891,-5.20312 0.67482,-0.85594 1.34964,-1.71188 2.04492,-2.59375 3.4734,-4.51195 3.4734,-4.51195 4.39697,-9.91821 -0.77575,-2.36755 -1.78436,-4.50111 -2.87939,-6.73804 -0.61584,-1.79682 -1.21956,-3.59784 -1.8125,-5.40234 -3.32823,-9.74233 -3.32823,-9.74233 -10.30323,-16.749029 -4.83527,-1.36749 -9.61177,-1.273302 -14.5913,-0.955567 -3.22828,0.150553 -6.38939,-0.241453 -9.60547,-0.518066 -6.59711,-0.510858 -8.36612,3.652664 -11.6875,8.625002 z m -36,59 c -0.49307,0.7483 -0.49307,0.7483 -0.99609,1.51172 -0.7135,1.07701 -0.7135,1.07701 -1.44141,2.17578 -0.53367,0.81855 -1.06734,1.63711 -1.61719,2.48047 -1.43141,2.08388 -2.88049,4.03757 -4.45312,6.00781 -4.55732,5.50138 -4.55732,5.50138 -6.67969,12.09375 0.7561,2.47151 1.92799,4.46946 3.1875,6.73047 0.48722,1.34115 0.95849,2.68816 1.41797,4.03906 2.66573,7.65807 2.66573,7.65807 8.45508,12.87549 4.36204,1.17038 8.67206,1.21198 13.16211,1.08106 1.96484,0.004 1.96484,0.004 4.90234,0.60205 2.96713,0.56584 4.28111,0.64006 7.0625,-0.59766 3.91901,-3.83646 6.89622,-8.488 9.79687,-13.11377 1.12738,-1.76747 2.33656,-3.44248 3.57032,-5.13623 2.06994,-2.7923 2.06994,-2.7923 0.88281,-6.625 -0.72282,-1.72001 -1.47866,-3.42619 -2.25,-5.125 -0.52548,-1.35518 -1.05015,-2.71068 -1.57422,-4.06641 -3.05417,-7.89909 -3.05417,-7.89909 -9.08984,-13.37109 -3.18178,-0.54888 -6.10738,-0.61091 -9.33594,-0.5625 -2.06662,-0.1263 -4.12759,-0.29477 -6.19116,-0.46313 -2.93354,-0.23064 -5.87037,-0.38433 -8.80884,-0.53687 z m -47,75 c -0.66,0.99 -1.32,1.98 -2,3 0.36042,4.52527 2.34714,8.58942 4.1875,12.6875 0.27908,0.67611 0.55816,1.35223 0.8457,2.04883 1.46185,3.24317 2.46824,5.01116 5.68164,6.63867 1.08411,0.20625 2.16821,0.4125 3.28516,0.625 0.64187,0.13447 1.28375,0.26893 1.94507,0.40747 4.91973,0.93101 10.11712,1.6876 15.05493,0.59253 3.86857,-3.07064 5.78678,-6.64496 8,-11 0.83609,-1.11792 1.68616,-2.22584 2.5625,-3.3125 1.87288,-3.50146 1.31965,-4.84677 0.4375,-8.6875 -1.62489,-5.26465 -3.39143,-10.73068 -7,-15 -4.36586,-2.06087 -8.23453,-2.03981 -13,-2 -0.89461,-0.18691 -1.78922,-0.37383 -2.71094,-0.56641 -9.39846,-1.64547 -13.07536,7.60571 -17.28906,14.56641 z m -10,32 c -4.56267,4.77994 -8.120584,10.04526 -11.734374,15.5625 -2.96313,4.52127 -6.03407,8.96827 -9.11451,13.41016 -2.26943,3.2746 -4.51055,6.55946 -6.67846,9.90234 -0.59567,0.90311 -0.59567,0.90311 -1.20337,1.82446 -1.07596,1.63425 -2.13796,3.27766 -3.19898,4.92163 -2.41549,2.77554 -3.47257,3.10602 -7.07031,3.37891 -0.73219,0.13664 -1.46437,0.27328 -2.21875,0.41406 -8.03855,0.74329 -12.98354,-3.42678 -19.05078,-8.10449 -2.94264,-2.22691 -5.99728,-4.28968 -9.04297,-6.37207 -1.10076,-0.76099 -2.20107,-1.52264 -3.30078,-2.28516 -0.78762,-0.54527 -1.57524,-1.09054 -2.38672,-1.65234 -2.59369,3.17445 -4.99999,6.38635 -7.25,9.8125 -0.52078,0.7902 -1.04156,1.58039 -1.57812,2.39453 -0.38672,0.59168 -0.77344,1.18336 -1.17188,1.79297 1.42268,1.0162 2.84544,2.03227 4.26855,3.04785 1.24946,0.89322 2.49748,1.78844 3.74415,2.68555 3.29088,2.36383 6.59777,4.69056 9.96386,6.94629 0.94916,0.64703 0.94916,0.64703 1.91748,1.30713 1.21187,0.82481 2.43203,1.63762 3.66114,2.43652 3.98885,2.74314 5.54106,4.82613 6.44482,9.57666 0.62742,6.31152 -0.30071,9.52434 -4.3125,14.5 -0.92242,1.21344 -1.84292,2.42834 -2.76172,3.64453 -0.4813,0.62729 -0.96261,1.25458 -1.45849,1.90088 -2.47865,3.30183 -4.77742,6.72444 -7.09229,10.14209 -3.87227,5.69717 -7.87844,11.23719 -12.10937,16.67578 -0.41766,0.70512 -0.83532,1.41024 -1.26563,2.13672 1.34268,4.02803 4.0022,5.40868 7.375,7.6875 0.59039,0.41572 1.18078,0.83145 1.78906,1.25977 3.58236,2.4931 3.58236,2.4931 7.83594,3.05273 1.71662,-2.03759 1.71662,-2.03759 3.375,-4.8125 0.69867,-1.08926 1.39734,-2.17852 2.11719,-3.30078 0.39284,-0.6144 0.78568,-1.2288 1.19043,-1.86182 3.07754,-4.73039 6.3147,-9.35641 9.52881,-13.99463 2.4601,-3.5639 4.88404,-7.11607 7.08545,-10.84668 5.21826,-8.67275 5.21826,-8.67275 10.26562,-9.99609 6.26114,-0.81667 11.43032,0.3377 16.52417,4.10205 0.56952,0.4407 1.13905,0.8814 1.72583,1.33545 1.2212,0.90646 2.44255,1.81271 3.66406,2.71875 0.59458,0.44859 1.18916,0.89719 1.80176,1.35937 2.44533,1.84198 4.919504,3.64041 7.409184,5.42188 0.76699,0.55945 1.53398,1.11891 2.32422,1.69531 2.03297,1.43482 2.03297,1.43482 4.98828,1.17969 2.15861,-2.61122 2.15861,-2.61122 4.1875,-5.875 0.71543,-1.09055 1.43086,-2.18109 2.16797,-3.30469 1.81244,-2.56414 1.81244,-2.56414 1.64453,-4.82031 -1.82227,-1.40454 -3.71207,-2.72167 -5.625,-4 -1.18653,-0.80811 -2.37271,-1.61672 -3.55859,-2.42578 -1.92027,-1.29891 -3.84371,-2.59238 -5.77393,-3.87647 -1.91975,-1.28127 -3.82523,-2.58182 -5.729984,-3.88525 -0.59958,-0.39123 -1.19915,-0.78246 -1.81689,-1.18555 -3.99076,-2.75478 -5.40767,-4.93362 -6.49561,-9.62695 -0.35062,-1.05188 -0.70125,-2.10375 -1.0625,-3.1875 0.0902,-5.50464 2.59651,-8.56852 5.74463,-12.96875 1.52459,-2.13296 3.02106,-4.28441 4.51709,-6.4375 2.389774,-3.43289 4.790304,-6.85787 7.199224,-10.27734 3.35744,-4.77125 6.67623,-9.56802 9.97656,-14.37891 0.70528,-1.02807 0.70528,-1.02807 1.4248,-2.0769 1.06746,-1.55721 2.13395,-3.11507 3.2002,-4.6731 -1.52725,-4.0363 -4.03757,-5.78985 -7.5,-8.25 -1.46953,-1.05961 -1.46953,-1.05961 -2.96875,-2.14063 -2.31262,-1.78822 -2.31262,-1.78822 -4.53125,-1.60937 z"
     fill="#da1719"
     id="path1" />
</svg>
